<?xml version="1.0" encoding="UTF-8" standalone="no"?>
<!-- Created with Inkscape (http://www.inkscape.org/) -->

<svg
   width="72.48587mm"
   height="9.0311127mm"
   viewBox="0 0 72.48587 9.0311127"
   version="1.1"
   id="svg5"
   xmlns:inkscape="http://www.inkscape.org/namespaces/inkscape"
   xmlns:sodipodi="http://sodipodi.sourceforge.net/DTD/sodipodi-0.dtd"
   xmlns="http://www.w3.org/2000/svg"
   xmlns:svg="http://www.w3.org/2000/svg">
  <sodipodi:namedview
     id="namedview7"
     pagecolor="#ffffff"
     bordercolor="#000000"
     borderopacity="0.25"
     inkscape:showpageshadow="2"
     inkscape:pageopacity="0.0"
     inkscape:pagecheckerboard="0"
     inkscape:deskcolor="#d1d1d1"
     inkscape:document-units="mm"
     showgrid="false" />
  <defs
     id="defs2" />
  <g
     inkscape:label="Layer 1"
     inkscape:groupmode="layer"
     id="layer1"
     transform="translate(81.986635,-124.7599)">
    <g
       aria-label="Gabriel Santos"
       id="text113"
       style="font-size:11.2889px;font-family:'Playfair Display';-inkscape-font-specification:'Playfair Display';stroke-width:0.264583">
      <path
         d="m -78.351611,125.45981 q 0.733779,0 1.185335,0.22578 0.451556,0.21449 0.846667,0.508 0.146756,0.11289 0.225778,0.11289 0.21449,0 0.282223,-0.68862 h 0.259645 q -0.02258,0.41769 -0.03387,1.016 -0.01129,0.59831 -0.01129,1.58044 h -0.259645 q -0.07902,-0.47413 -0.191911,-0.9144 -0.112889,-0.44027 -0.372534,-0.75635 -0.327378,-0.41769 -0.857956,-0.64347 -0.530578,-0.23707 -1.095023,-0.23707 -0.564445,0 -1.02729,0.28222 -0.451556,0.27094 -0.778935,0.79023 -0.327378,0.51929 -0.508,1.25306 -0.169334,0.72249 -0.169334,1.6369 0,2.032 0.654757,2.98027 0.654756,0.93697 2.032002,0.93697 0.4064,0 0.699912,-0.11289 0.3048,-0.12417 0.474133,-0.23706 0.21449,-0.14676 0.270934,-0.27094 0.05645,-0.13546 0.05645,-0.34995 v -1.08374 q 0,-0.46284 -0.09031,-0.68862 -0.09031,-0.22578 -0.338667,-0.3048 -0.237067,-0.079 -0.7112,-0.0903 v -0.22578 q 0.2032,0.0113 0.474133,0.0226 0.270934,0 0.564445,0.0113 0.304801,0 0.553157,0 0.372533,0 0.666045,-0.0113 0.3048,-0.0113 0.508,-0.0226 v 0.22578 q -0.248356,0.0113 -0.372534,0.079 -0.124177,0.0677 -0.169333,0.27094 -0.03387,0.2032 -0.03387,0.62089 v 2.2352 h -0.225778 q -0.01129,-0.19191 -0.09031,-0.41769 -0.06773,-0.22578 -0.214489,-0.22578 -0.06773,0 -0.135467,0.0339 -0.06773,0.0339 -0.237067,0.15804 -0.372533,0.28222 -0.790223,0.45156 -0.417689,0.15804 -0.970845,0.15804 -1.162757,0 -1.998136,-0.47413 -0.824089,-0.48542 -1.264356,-1.38854 -0.440268,-0.90311 -0.440268,-2.15618 0,-1.3208 0.474134,-2.28035 0.474134,-0.95956 1.286935,-1.47885 0.82409,-0.53058 1.873957,-0.53058 z"
         style="fill:#2e3c50"
         id="path1922" />
      <path
         d="m -72.786205,133.68942 q -0.462845,0 -0.801512,-0.16933 -0.338667,-0.18063 -0.519289,-0.49672 -0.169334,-0.31608 -0.169334,-0.73377 0,-0.49672 0.225779,-0.8128 0.237066,-0.31609 0.598311,-0.50801 0.361245,-0.19191 0.756357,-0.31608 0.4064,-0.13547 0.767645,-0.24836 0.361245,-0.12418 0.587023,-0.28222 0.237067,-0.15805 0.237067,-0.41769 v -0.69991 q 0,-0.47414 -0.146756,-0.72249 -0.135467,-0.24836 -0.372534,-0.32738 -0.237067,-0.0903 -0.530578,-0.0903 -0.282223,0 -0.609601,0.079 -0.316089,0.079 -0.508,0.32738 0.214489,0.0452 0.372533,0.22578 0.158045,0.18062 0.158045,0.46284 0,0.28222 -0.180622,0.45156 -0.180623,0.15804 -0.462845,0.15804 -0.327378,0 -0.485423,-0.2032 -0.146756,-0.21449 -0.146756,-0.47413 0,-0.29351 0.146756,-0.47414 0.146756,-0.18062 0.372534,-0.33866 0.259644,-0.18063 0.666045,-0.3048 0.417689,-0.13547 0.936978,-0.13547 0.462845,0 0.790224,0.11289 0.327378,0.1016 0.541867,0.3048 0.293511,0.27093 0.383822,0.66604 0.09031,0.38383 0.09031,0.92569 v 3.13832 q 0,0.28222 0.07902,0.4064 0.09031,0.12418 0.270933,0.12418 0.124178,0 0.237067,-0.0565 0.112889,-0.0564 0.270934,-0.18062 l 0.124178,0.19191 q -0.237067,0.18062 -0.451556,0.3048 -0.214489,0.11289 -0.575734,0.11289 -0.327378,0 -0.541867,-0.11289 -0.214489,-0.11289 -0.327378,-0.32738 -0.1016,-0.22578 -0.1016,-0.56444 -0.304801,0.508 -0.733779,0.75635 -0.417689,0.24836 -0.948268,0.24836 z m 0.406401,-0.45156 q 0.372533,0 0.688623,-0.21449 0.327378,-0.21448 0.587023,-0.64346 v -2.21263 q -0.135467,0.19191 -0.395112,0.32738 -0.259645,0.12418 -0.564445,0.25965 -0.3048,0.12417 -0.587023,0.3048 -0.270933,0.16933 -0.451556,0.45155 -0.180622,0.28222 -0.180622,0.73378 0,0.45156 0.237067,0.72249 0.248355,0.27093 0.666045,0.27093 z"
         style="fill:#2e3c50"
         id="path1924" />
      <path
         d="m -65.414562,127.63857 q 0.92569,0 1.53529,0.76764 0.609601,0.75636 0.609601,2.30294 0,1.016 -0.349956,1.70462 -0.338667,0.67734 -0.914401,1.016 -0.575734,0.33867 -1.253068,0.33867 -0.564445,0 -1.095023,-0.31609 -0.51929,-0.32738 -0.778934,-0.95955 l 0.225778,0.12417 q 0.282222,0.45156 0.699911,0.67734 0.41769,0.21449 0.857957,0.21449 0.756356,0 1.12889,-0.67734 0.383823,-0.68862 0.383823,-2.12231 0,-0.9144 -0.146756,-1.524 -0.146756,-0.6096 -0.451556,-0.90311 -0.304801,-0.3048 -0.778934,-0.3048 -0.51929,0 -0.970846,0.47413 -0.440267,0.46284 -0.541867,1.36596 l -0.135467,-0.15805 q 0.124178,-0.95955 0.666045,-1.49013 0.553156,-0.53058 1.309513,-0.53058 z m -1.761069,-2.86738 v 8.25218 q -0.146755,0.12418 -0.3048,0.25965 -0.146756,0.12418 -0.293511,0.24836 -0.146756,0.12417 -0.304801,0.25964 l -0.191911,-0.079 q 0.04516,-0.15805 0.05644,-0.31609 0.02258,-0.16934 0.02258,-0.33867 v -6.93138 q 0,-0.508 -0.180622,-0.74507 -0.180623,-0.24836 -0.677334,-0.24836 v -0.23706 q 0.361245,0.0339 0.699912,0.0339 0.327378,0 0.620889,-0.0339 0.304801,-0.0452 0.553156,-0.12418 z"
         style="fill:#2e3c50"
         id="path1926" />
      <path
         d="m -58.90087,127.63857 q 0.304801,0 0.530579,0.12418 0.237067,0.12417 0.361245,0.32738 0.135466,0.19191 0.135466,0.44026 0,0.28222 -0.180622,0.49671 -0.169334,0.21449 -0.462845,0.21449 -0.237067,0 -0.417689,-0.14675 -0.180623,-0.15805 -0.180623,-0.44027 0,-0.21449 0.112889,-0.36124 0.124178,-0.15805 0.270934,-0.24836 -0.07902,-0.11289 -0.237067,-0.11289 -0.349956,0 -0.643467,0.21449 -0.293512,0.2032 -0.496712,0.53058 -0.2032,0.32738 -0.316089,0.69991 -0.112889,0.36124 -0.112889,0.67733 v 2.39325 q 0,0.55316 0.316089,0.74507 0.327378,0.18062 0.880534,0.18062 v 0.23707 q -0.259644,-0.0113 -0.733778,-0.0226 -0.474134,-0.0226 -1.004712,-0.0226 -0.383823,0 -0.767646,0.0226 -0.372533,0.0113 -0.564445,0.0226 v -0.23707 q 0.462845,0 0.654757,-0.16933 0.2032,-0.16934 0.2032,-0.64347 v -3.53343 q 0,-0.508 -0.180623,-0.74506 -0.180622,-0.24836 -0.677334,-0.24836 v -0.23707 q 0.361245,0.0339 0.699912,0.0339 0.327378,0 0.62089,-0.0339 0.3048,-0.0452 0.553156,-0.12417 v 1.41111 q 0.124178,-0.32738 0.349956,-0.65476 0.237067,-0.33866 0.564445,-0.56444 0.327378,-0.22578 0.722489,-0.22578 z"
         style="fill:#2e3c50"
         id="path1928" />
      <path
         d="m -56.101225,124.97439 q 0.293511,0 0.508,0.21449 0.214489,0.21449 0.214489,0.508 0,0.29351 -0.214489,0.508 -0.214489,0.21449 -0.508,0.21449 -0.293512,0 -0.508001,-0.21449 -0.214489,-0.21449 -0.214489,-0.508 0,-0.29351 0.214489,-0.508 0.214489,-0.21449 0.508001,-0.21449 z m 0.587023,2.69805 v 4.88809 q 0,0.47413 0.191911,0.64347 0.2032,0.16933 0.666045,0.16933 v 0.23707 q -0.191911,-0.0113 -0.587023,-0.0226 -0.383822,-0.0226 -0.778934,-0.0226 -0.383823,0 -0.778934,0.0226 -0.395112,0.0113 -0.587023,0.0226 v -0.23707 q 0.462845,0 0.654756,-0.16933 0.203201,-0.16934 0.203201,-0.64347 v -3.53343 q 0,-0.508 -0.180623,-0.74506 -0.180622,-0.24836 -0.677334,-0.24836 v -0.23707 q 0.361245,0.0339 0.699912,0.0339 0.327378,0 0.620889,-0.0339 0.304801,-0.0452 0.553157,-0.12417 z"
         style="fill:#2e3c50"
         id="path1930" />
      <path
         d="m -51.337317,127.63857 q 0.993423,0 1.546579,0.6096 0.564445,0.59831 0.564445,1.87396 h -3.984982 l -0.01129,-0.21449 h 2.912536 q 0.02258,-0.55316 -0.09031,-1.016 -0.112889,-0.47414 -0.361245,-0.75636 -0.237067,-0.28222 -0.62089,-0.28222 -0.519289,0 -0.925689,0.51929 -0.395112,0.51929 -0.474134,1.64818 l 0.03387,0.0451 q -0.02258,0.16934 -0.03387,0.37254 -0.01129,0.2032 -0.01129,0.4064 0,0.76764 0.248356,1.3208 0.248355,0.55315 0.643467,0.84667 0.4064,0.28222 0.835379,0.28222 0.338667,0 0.643467,-0.1016 0.3048,-0.11289 0.564445,-0.36125 0.259645,-0.24835 0.451556,-0.66604 l 0.225778,0.0903 q -0.124178,0.37253 -0.4064,0.72249 -0.282223,0.34995 -0.711201,0.57573 -0.428978,0.21449 -0.993423,0.21449 -0.812801,0 -1.399824,-0.37253 -0.575734,-0.37254 -0.891823,-1.02729 -0.304801,-0.66605 -0.304801,-1.524 0,-0.99343 0.31609,-1.70463 0.316089,-0.72249 0.891823,-1.10631 0.575734,-0.39511 1.343379,-0.39511 z"
         style="fill:#2e3c50"
         id="path1932" />
      <path
         d="m -46.573419,124.7599 v 7.80063 q 0,0.47413 0.191911,0.64347 0.203201,0.16933 0.666046,0.16933 v 0.23707 q -0.191912,-0.0113 -0.587023,-0.0226 -0.383823,-0.0226 -0.778934,-0.0226 -0.383823,0 -0.778934,0.0226 -0.395112,0.0113 -0.587023,0.0226 v -0.23707 q 0.462845,0 0.654756,-0.16933 0.2032,-0.16934 0.2032,-0.64347 v -6.44596 q 0,-0.508 -0.180622,-0.74507 -0.180623,-0.24836 -0.677334,-0.24836 v -0.23706 q 0.361245,0.0339 0.699912,0.0339 0.327378,0 0.620889,-0.0339 0.3048,-0.0452 0.553156,-0.12418 z"
         style="fill:#2e3c50"
         id="path1934" />
      <path
         d="m -39.766234,125.49368 q 0.564445,0 0.857956,0.13546 0.293512,0.12418 0.51929,0.28223 0.135466,0.079 0.214489,0.12418 0.09031,0.0339 0.169333,0.0339 0.112889,0 0.158045,-0.12418 0.05644,-0.12417 0.09031,-0.37253 h 0.259645 q -0.01129,0.19191 -0.03387,0.46285 -0.01129,0.25964 -0.02258,0.69991 0,0.42898 0,1.14018 h -0.259645 q -0.03387,-0.54187 -0.237066,-1.03858 -0.203201,-0.49671 -0.598312,-0.8128 -0.383823,-0.31609 -1.016001,-0.31609 -0.598312,0 -0.993423,0.36124 -0.383823,0.36125 -0.383823,0.94827 0,0.508 0.259645,0.85796 0.259644,0.33866 0.688623,0.62089 0.440267,0.27093 0.948267,0.58702 0.587023,0.36124 1.038579,0.72249 0.462845,0.34995 0.72249,0.77893 0.270933,0.42898 0.270933,1.03858 0,0.72249 -0.327378,1.19662 -0.327378,0.47414 -0.869245,0.71121 -0.541867,0.23706 -1.196624,0.23706 -0.598311,0 -0.948267,-0.13546 -0.349956,-0.13547 -0.598312,-0.28223 -0.248356,-0.15804 -0.383823,-0.15804 -0.112889,0 -0.169333,0.12418 -0.04516,0.12417 -0.07902,0.37253 h -0.259645 q 0.02258,-0.23707 0.02258,-0.55316 0.01129,-0.32737 0.01129,-0.84666 0.01129,-0.51929 0.01129,-1.30952 h 0.259644 q 0.04516,0.67734 0.248356,1.26436 0.214489,0.58702 0.643467,0.94827 0.440267,0.34995 1.162757,0.34995 0.372534,0 0.699912,-0.14675 0.338667,-0.15805 0.553156,-0.48542 0.214489,-0.33867 0.214489,-0.86925 0,-0.46284 -0.225778,-0.80151 -0.214489,-0.34996 -0.6096,-0.64347 -0.395112,-0.3048 -0.92569,-0.62089 -0.530579,-0.32738 -0.993424,-0.66604 -0.462844,-0.33867 -0.745067,-0.77894 -0.270934,-0.45155 -0.270934,-1.08373 0,-0.66605 0.293512,-1.09503 0.3048,-0.44026 0.790223,-0.64346 0.485423,-0.21449 1.038579,-0.21449 z"
         style="fill:#2e3c50"
         id="path1936" />
      <path
         d="m -34.629794,133.68942 q -0.462845,0 -0.801512,-0.16933 -0.338667,-0.18063 -0.519289,-0.49672 -0.169334,-0.31608 -0.169334,-0.73377 0,-0.49672 0.225778,-0.8128 0.237067,-0.31609 0.598312,-0.50801 0.361245,-0.19191 0.756356,-0.31608 0.406401,-0.13547 0.767645,-0.24836 0.361245,-0.12418 0.587023,-0.28222 0.237067,-0.15805 0.237067,-0.41769 v -0.69991 q 0,-0.47414 -0.146756,-0.72249 -0.135466,-0.24836 -0.372533,-0.32738 -0.237067,-0.0903 -0.530579,-0.0903 -0.282222,0 -0.6096,0.079 -0.316089,0.079 -0.508001,0.32738 0.214489,0.0452 0.372534,0.22578 0.158045,0.18062 0.158045,0.46284 0,0.28222 -0.180623,0.45156 -0.180622,0.15804 -0.462845,0.15804 -0.327378,0 -0.485422,-0.2032 -0.146756,-0.21449 -0.146756,-0.47413 0,-0.29351 0.146756,-0.47414 0.146755,-0.18062 0.372533,-0.33866 0.259645,-0.18063 0.666045,-0.3048 0.41769,-0.13547 0.936979,-0.13547 0.462845,0 0.790223,0.11289 0.327378,0.1016 0.541867,0.3048 0.293512,0.27093 0.383823,0.66604 0.09031,0.38383 0.09031,0.92569 v 3.13832 q 0,0.28222 0.07902,0.4064 0.09031,0.12418 0.270933,0.12418 0.124178,0 0.237067,-0.0565 0.112889,-0.0564 0.270934,-0.18062 l 0.124178,0.19191 q -0.237067,0.18062 -0.451556,0.3048 -0.21449,0.11289 -0.575734,0.11289 -0.327378,0 -0.541868,-0.11289 -0.214489,-0.11289 -0.327378,-0.32738 -0.1016,-0.22578 -0.1016,-0.56444 -0.3048,0.508 -0.733778,0.75635 -0.41769,0.24836 -0.948268,0.24836 z m 0.4064,-0.45156 q 0.372534,0 0.688623,-0.21449 0.327378,-0.21448 0.587023,-0.64346 v -2.21263 q -0.135467,0.19191 -0.395111,0.32738 -0.259645,0.12418 -0.564445,0.25965 -0.304801,0.12417 -0.587023,0.3048 -0.270934,0.16933 -0.451556,0.45155 -0.180623,0.28222 -0.180623,0.73378 0,0.45156 0.237067,0.72249 0.248356,0.27093 0.666045,0.27093 z"
         style="fill:#2e3c50"
         id="path1938" />
      <path
         d="m -26.817887,127.63857 q 0.428978,0 0.711201,0.11289 0.293511,0.11289 0.485423,0.31609 0.214489,0.22578 0.3048,0.56444 0.09031,0.33867 0.09031,0.9144 v 3.01414 q 0,0.47413 0.191911,0.64347 0.203201,0.16933 0.666046,0.16933 v 0.23707 q -0.191912,-0.0113 -0.587023,-0.0226 -0.395112,-0.0226 -0.767645,-0.0226 -0.372534,0 -0.733779,0.0226 -0.349956,0.0113 -0.530578,0.0226 v -0.23707 q 0.4064,0 0.575734,-0.16933 0.169333,-0.16934 0.169333,-0.64347 v -3.26249 q 0,-0.34996 -0.05644,-0.64347 -0.05645,-0.29351 -0.259645,-0.47413 -0.191911,-0.18063 -0.598312,-0.18063 -0.474134,0 -0.835378,0.27094 -0.349956,0.27093 -0.553157,0.74506 -0.191911,0.46285 -0.191911,1.03858 v 2.50614 q 0,0.47413 0.169334,0.64347 0.169333,0.16933 0.575734,0.16933 v 0.23707 q -0.180623,-0.0113 -0.541868,-0.0226 -0.349956,-0.0226 -0.722489,-0.0226 -0.372534,0 -0.767645,0.0226 -0.395112,0.0113 -0.587023,0.0226 v -0.23707 q 0.462845,0 0.654756,-0.16933 0.2032,-0.16934 0.2032,-0.64347 v -3.53343 q 0,-0.508 -0.180622,-0.74506 -0.180623,-0.24836 -0.677334,-0.24836 v -0.23707 q 0.361245,0.0339 0.699912,0.0339 0.327378,0 0.620889,-0.0339 0.3048,-0.0452 0.553156,-0.12417 v 1.33209 q 0.293512,-0.76765 0.812801,-1.06116 0.530578,-0.3048 1.106312,-0.3048 z"
         style="fill:#2e3c50"
         id="path1940" />
      <path
         d="m -22.053988,125.92266 v 1.88524 h 1.670757 v 0.22578 h -1.670757 v 4.3688 q 0,0.53058 0.191911,0.74507 0.191911,0.21449 0.530578,0.21449 0.338667,0 0.587023,-0.27093 0.248356,-0.28222 0.428978,-0.93698 l 0.225778,0.0564 q -0.112889,0.65476 -0.451556,1.10632 -0.327378,0.45155 -1.016001,0.45155 -0.383822,0 -0.632178,-0.1016 -0.248356,-0.0903 -0.440267,-0.27093 -0.248356,-0.25965 -0.349956,-0.62089 -0.09031,-0.36125 -0.09031,-0.95956 v -3.78178 h -1.083735 v -0.22578 h 1.083735 v -1.7272 q 0.282222,-0.0113 0.541867,-0.0451 0.259645,-0.0339 0.474134,-0.11289 z"
         style="fill:#2e3c50"
         id="path1942" />
      <path
         d="m -17.10947,127.63857 q 0.722489,0 1.298223,0.31609 0.575734,0.31609 0.914401,0.99342 0.349956,0.67734 0.349956,1.76107 0,1.08373 -0.349956,1.76107 -0.338667,0.66604 -0.914401,0.98213 -0.575734,0.31609 -1.298223,0.31609 -0.711201,0 -1.298224,-0.31609 -0.575734,-0.31609 -0.92569,-0.98213 -0.338667,-0.67734 -0.338667,-1.76107 0,-1.08373 0.338667,-1.76107 0.349956,-0.67733 0.92569,-0.99342 0.587023,-0.31609 1.298224,-0.31609 z m 0,0.22578 q -0.643468,0 -1.061157,0.66604 -0.4064,0.66605 -0.4064,2.17876 0,1.51271 0.4064,2.17876 0.417689,0.65475 1.061157,0.65475 0.643467,0 1.049867,-0.65475 0.41769,-0.66605 0.41769,-2.17876 0,-1.51271 -0.41769,-2.17876 -0.4064,-0.66604 -1.049867,-0.66604 z"
         style="fill:#2e3c50"
         id="path1944" />
      <path
         d="m -11.668236,127.63857 q 0.451556,0 0.767646,0.14675 0.316089,0.14676 0.462845,0.27094 0.372533,0.3048 0.4515555,-0.4064 h 0.2596447 q -0.022578,0.31609 -0.033867,0.75635 -0.011289,0.42898 -0.011289,1.16276 h -0.2596442 q -0.06773,-0.41769 -0.237067,-0.8128 -0.158045,-0.39511 -0.474134,-0.64347 -0.316089,-0.25964 -0.82409,-0.25964 -0.395111,0 -0.666045,0.22578 -0.259644,0.21449 -0.259644,0.64346 0,0.33867 0.2032,0.58703 0.2032,0.23706 0.530578,0.45155 0.327378,0.2032 0.711201,0.45156 0.428978,0.27093 0.778934,0.55315 0.3499555,0.28223 0.5531557,0.62089 0.2144891,0.33867 0.2144891,0.80152 0,0.51929 -0.2709336,0.86924 -0.2709332,0.34996 -0.7112002,0.53058 -0.428978,0.18062 -0.948268,0.18062 -0.248356,0 -0.474134,-0.0452 -0.214489,-0.0339 -0.417689,-0.11289 -0.112889,-0.0565 -0.237067,-0.13547 -0.112889,-0.079 -0.225778,-0.16933 -0.112889,-0.0903 -0.2032,0.0113 -0.09031,0.0903 -0.135467,0.37253 h -0.259644 q 0.02258,-0.36125 0.03387,-0.88053 0.01129,-0.51929 0.01129,-1.37725 h 0.259645 q 0.07902,0.63218 0.225778,1.10631 0.146756,0.47414 0.462845,0.74507 0.316089,0.25964 0.880534,0.25964 0.225778,0 0.451556,-0.1016 0.237067,-0.1016 0.395112,-0.33866 0.158044,-0.23707 0.158044,-0.63218 0,-0.49671 -0.361245,-0.8128 -0.361245,-0.31609 -0.914401,-0.66605 -0.4064,-0.25964 -0.767645,-0.51929 -0.349956,-0.25964 -0.575734,-0.58702 -0.214489,-0.32738 -0.214489,-0.79022 0,-0.508 0.225778,-0.82409 0.237067,-0.32738 0.62089,-0.47414 0.383822,-0.15804 0.824089,-0.15804 z"
         style="fill:#2e3c50"
         id="path1946" />
    </g>
  </g>
</svg>
