<?xml version="1.0" encoding="UTF-8" standalone="no"?>
<!-- Created with Inkscape (http://www.inkscape.org/) -->

<svg
   width="46.250488mm"
   height="8.7941055mm"
   viewBox="0 0 46.250488 8.7941055"
   version="1.1"
   id="svg309"
   xmlns:inkscape="http://www.inkscape.org/namespaces/inkscape"
   xmlns:sodipodi="http://sodipodi.sourceforge.net/DTD/sodipodi-0.dtd"
   xmlns="http://www.w3.org/2000/svg"
   xmlns:svg="http://www.w3.org/2000/svg">
  <sodipodi:namedview
     id="namedview311"
     pagecolor="#ffffff"
     bordercolor="#000000"
     borderopacity="0.25"
     inkscape:showpageshadow="2"
     inkscape:pageopacity="0.0"
     inkscape:pagecheckerboard="0"
     inkscape:deskcolor="#d1d1d1"
     inkscape:document-units="mm"
     showgrid="false" />
  <defs
     id="defs306" />
  <g
     inkscape:label="Layer 1"
     inkscape:groupmode="layer"
     id="layer1"
     transform="translate(125.10753,-123.1175)">
    <g
       aria-label="O Posista"
       id="text315"
       style="font-size:11.2889px;font-family:'Playfair Display';-inkscape-font-specification:'Playfair Display';fill:#2e3c50;stroke-width:0.264583">
      <path
         d="m -121.51766,123.60292 q 1.07245,0 1.87396,0.48543 0.8128,0.48542 1.25307,1.39982 0.45155,0.90311 0.45155,2.20134 0,1.26435 -0.46284,2.21262 -0.45156,0.94827 -1.26436,1.47885 -0.8128,0.53057 -1.86267,0.53057 -1.07244,0 -1.88524,-0.48542 -0.80152,-0.48542 -1.25307,-1.39982 -0.44027,-0.9144 -0.44027,-2.20134 0,-1.26435 0.46285,-2.21262 0.46284,-0.94827 1.26435,-1.47885 0.8128,-0.53058 1.86267,-0.53058 z m -0.0451,0.2032 q -0.73378,0 -1.27565,0.508 -0.54187,0.508 -0.84667,1.39983 -0.29351,0.89182 -0.29351,2.06587 0,1.19662 0.32738,2.08844 0.33867,0.88054 0.90311,1.36596 0.57573,0.47413 1.26436,0.47413 0.73378,0 1.27564,-0.508 0.54187,-0.508 0.83538,-1.39982 0.3048,-0.90311 0.3048,-2.06587 0,-1.20791 -0.33866,-2.08845 -0.32738,-0.88053 -0.89183,-1.35466 -0.56444,-0.48543 -1.26435,-0.48543 z"
         id="path317" />
      <path
         d="m -114.05572,123.76097 q 0.23707,0.0113 0.62089,0.0226 0.38382,0.0113 0.75636,0.0113 0.53057,0 1.016,-0.0113 0.48542,-0.0113 0.68862,-0.0113 1.36596,0 2.04329,0.62089 0.67733,0.62089 0.67733,1.60302 0,0.4064 -0.13546,0.85796 -0.13547,0.44026 -0.47414,0.82409 -0.32737,0.37253 -0.90311,0.6096 -0.57573,0.23706 -1.45627,0.23706 h -1.08373 v -0.22577 h 0.97084 q 0.80152,0 1.21921,-0.3048 0.42897,-0.3048 0.57573,-0.80152 0.15804,-0.49671 0.15804,-1.07244 0,-1.07245 -0.42897,-1.60303 -0.41769,-0.53057 -1.44498,-0.53057 -0.51929,0 -0.67734,0.19191 -0.15804,0.19191 -0.15804,0.77893 v 5.5993 q 0,0.4064 0.079,0.6096 0.0903,0.2032 0.33867,0.27093 0.24835,0.0677 0.72249,0.0903 v 0.22578 q -0.29351,-0.0226 -0.74507,-0.0226 -0.45156,-0.0113 -0.9144,-0.0113 -0.44027,0 -0.82409,0.0113 -0.38382,0 -0.62089,0.0226 v -0.22578 q 0.38382,-0.0226 0.57573,-0.0903 0.2032,-0.0677 0.27094,-0.27093 0.0677,-0.2032 0.0677,-0.6096 v -5.5993 q 0,-0.41769 -0.0677,-0.6096 -0.0677,-0.2032 -0.27094,-0.27093 -0.19191,-0.079 -0.57573,-0.0903 z"
         id="path319" />
      <path
         d="m -104.95689,125.78168 q 0.72249,0 1.29822,0.31609 0.57573,0.31609 0.9144,0.99342 0.34996,0.67734 0.34996,1.76107 0,1.08374 -0.34996,1.76107 -0.33867,0.66605 -0.9144,0.98213 -0.57573,0.31609 -1.29822,0.31609 -0.7112,0 -1.29823,-0.31609 -0.57573,-0.31608 -0.92569,-0.98213 -0.33866,-0.67733 -0.33866,-1.76107 0,-1.08373 0.33866,-1.76107 0.34996,-0.67733 0.92569,-0.99342 0.58703,-0.31609 1.29823,-0.31609 z m 0,0.22578 q -0.64347,0 -1.06116,0.66604 -0.4064,0.66605 -0.4064,2.17876 0,1.51271 0.4064,2.17876 0.41769,0.65476 1.06116,0.65476 0.64346,0 1.04986,-0.65476 0.41769,-0.66605 0.41769,-2.17876 0,-1.51271 -0.41769,-2.17876 -0.4064,-0.66604 -1.04986,-0.66604 z"
         id="path321" />
      <path
         d="m -99.515661,125.78168 q 0.451556,0 0.767645,0.14676 0.316089,0.14675 0.462845,0.27093 0.372534,0.3048 0.451556,-0.4064 h 0.259645 q -0.02258,0.31609 -0.03387,0.75636 -0.01129,0.42897 -0.01129,1.16275 h -0.259645 q -0.06773,-0.41769 -0.237066,-0.8128 -0.158045,-0.39511 -0.474134,-0.64346 -0.316089,-0.25965 -0.82409,-0.25965 -0.395111,0 -0.666045,0.22578 -0.25964,0.21449 -0.25964,0.64347 0,0.33866 0.2032,0.58702 0.203196,0.23707 0.530574,0.45155 0.327378,0.2032 0.7112,0.45156 0.428979,0.27093 0.778935,0.55316 0.349955,0.28222 0.553156,0.62089 0.214489,0.33866 0.214489,0.80151 0,0.51929 -0.270934,0.86924 -0.270933,0.34996 -0.711201,0.53058 -0.428978,0.18062 -0.948267,0.18062 -0.248356,0 -0.474134,-0.0452 -0.214489,-0.0339 -0.417688,-0.11289 -0.11289,-0.0564 -0.23706,-0.13547 -0.11289,-0.079 -0.22578,-0.16933 -0.11289,-0.0903 -0.2032,0.0113 -0.0903,0.0903 -0.13547,0.37253 h -0.25964 q 0.0226,-0.36124 0.0339,-0.88053 0.0113,-0.51929 0.0113,-1.37725 h 0.25965 q 0.079,0.63218 0.22577,1.10631 0.14676,0.47414 0.46285,0.74507 0.316084,0.25965 0.88053,0.25965 0.225778,0 0.451556,-0.1016 0.237066,-0.1016 0.395111,-0.33867 0.158045,-0.23707 0.158045,-0.63218 0,-0.49671 -0.361245,-0.8128 -0.361245,-0.31609 -0.914401,-0.66605 -0.406396,-0.25964 -0.767646,-0.51928 -0.34995,-0.25965 -0.57573,-0.58703 -0.21449,-0.32738 -0.21449,-0.79022 0,-0.508 0.22578,-0.82409 0.23707,-0.32738 0.62089,-0.47413 0.383818,-0.15805 0.824085,-0.15805 z"
         id="path323" />
      <path
         d="m -95.203318,123.1175 q 0.293511,0 0.508001,0.21449 0.214489,0.21449 0.214489,0.508 0,0.29351 -0.214489,0.508 -0.21449,0.21449 -0.508001,0.21449 -0.293511,0 -0.508001,-0.21449 -0.214489,-0.21449 -0.214489,-0.508 0,-0.29351 0.214489,-0.508 0.21449,-0.21449 0.508001,-0.21449 z m 0.587023,2.69805 v 4.88809 q 0,0.47414 0.191911,0.64347 0.2032,0.16933 0.666045,0.16933 v 0.23707 q -0.191911,-0.0113 -0.587023,-0.0226 -0.383822,-0.0226 -0.778934,-0.0226 -0.383822,0 -0.778934,0.0226 -0.395111,0.0113 -0.587023,0.0226 v -0.23707 q 0.462845,0 0.654757,-0.16933 0.2032,-0.16933 0.2032,-0.64347 v -3.53342 q 0,-0.508 -0.180623,-0.74507 -0.180622,-0.24836 -0.677334,-0.24836 v -0.23706 q 0.361245,0.0339 0.699912,0.0339 0.327378,0 0.62089,-0.0339 0.3048,-0.0452 0.553156,-0.12418 z"
         id="path325" />
      <path
         d="m -91.161899,125.78168 q 0.451556,0 0.767645,0.14676 0.316089,0.14675 0.462845,0.27093 0.372533,0.3048 0.451556,-0.4064 h 0.259644 q -0.02258,0.31609 -0.03387,0.75636 -0.01129,0.42897 -0.01129,1.16275 h -0.259645 q -0.06773,-0.41769 -0.237067,-0.8128 -0.158044,-0.39511 -0.474134,-0.64346 -0.316089,-0.25965 -0.824089,-0.25965 -0.395112,0 -0.666045,0.22578 -0.259645,0.21449 -0.259645,0.64347 0,0.33866 0.2032,0.58702 0.2032,0.23707 0.530578,0.45155 0.327378,0.2032 0.711201,0.45156 0.428978,0.27093 0.778934,0.55316 0.349956,0.28222 0.553156,0.62089 0.214489,0.33866 0.214489,0.80151 0,0.51929 -0.270933,0.86924 -0.270934,0.34996 -0.711201,0.53058 -0.428978,0.18062 -0.948268,0.18062 -0.248355,0 -0.474133,-0.0452 -0.214489,-0.0339 -0.41769,-0.11289 -0.112889,-0.0564 -0.237067,-0.13547 -0.112889,-0.079 -0.225778,-0.16933 -0.112889,-0.0903 -0.2032,0.0113 -0.09031,0.0903 -0.135467,0.37253 h -0.259644 q 0.02258,-0.36124 0.03387,-0.88053 0.01129,-0.51929 0.01129,-1.37725 h 0.259645 q 0.07902,0.63218 0.225778,1.10631 0.146756,0.47414 0.462845,0.74507 0.316089,0.25965 0.880534,0.25965 0.225778,0 0.451556,-0.1016 0.237067,-0.1016 0.395112,-0.33867 0.158044,-0.23707 0.158044,-0.63218 0,-0.49671 -0.361244,-0.8128 -0.361245,-0.31609 -0.914401,-0.66605 -0.406401,-0.25964 -0.767646,-0.51928 -0.349956,-0.25965 -0.575734,-0.58703 -0.214489,-0.32738 -0.214489,-0.79022 0,-0.508 0.225778,-0.82409 0.237067,-0.32738 0.62089,-0.47413 0.383822,-0.15805 0.82409,-0.15805 z"
         id="path327" />
      <path
         d="m -86.318976,124.06577 v 1.88524 h 1.670757 v 0.22578 h -1.670757 v 4.36881 q 0,0.53058 0.191911,0.74506 0.191911,0.21449 0.530579,0.21449 0.338667,0 0.587022,-0.27093 0.248356,-0.28222 0.428979,-0.93698 l 0.225778,0.0565 q -0.112889,0.65475 -0.451556,1.10631 -0.327379,0.45155 -1.016001,0.45155 -0.383823,0 -0.632179,-0.1016 -0.248356,-0.0903 -0.440267,-0.27093 -0.248356,-0.25964 -0.349956,-0.62089 -0.09031,-0.36124 -0.09031,-0.95956 v -3.78178 h -1.083735 v -0.22578 h 1.083735 v -1.7272 q 0.282222,-0.0113 0.541867,-0.0452 0.259645,-0.0339 0.474134,-0.11289 z"
         id="path329" />
      <path
         d="m -82.537215,131.83253 q -0.462845,0 -0.801512,-0.16933 -0.338667,-0.18062 -0.519289,-0.49671 -0.169334,-0.31609 -0.169334,-0.73378 0,-0.49671 0.225778,-0.8128 0.237067,-0.31609 0.598312,-0.508 0.361245,-0.19191 0.756356,-0.31609 0.406401,-0.13547 0.767645,-0.24836 0.361245,-0.12418 0.587023,-0.28222 0.237067,-0.15805 0.237067,-0.41769 v -0.69991 q 0,-0.47414 -0.146756,-0.72249 -0.135466,-0.24836 -0.372533,-0.32738 -0.237067,-0.0903 -0.530579,-0.0903 -0.282222,0 -0.6096,0.079 -0.316089,0.079 -0.508001,0.32738 0.214489,0.0452 0.372534,0.22578 0.158045,0.18062 0.158045,0.46284 0,0.28223 -0.180623,0.45156 -0.180622,0.15804 -0.462845,0.15804 -0.327378,0 -0.485423,-0.2032 -0.146755,-0.21449 -0.146755,-0.47413 0,-0.29351 0.146755,-0.47413 0.146756,-0.18063 0.372534,-0.33867 0.259645,-0.18062 0.666045,-0.3048 0.41769,-0.13547 0.936979,-0.13547 0.462845,0 0.790223,0.11289 0.327378,0.1016 0.541867,0.3048 0.293512,0.27093 0.383823,0.66605 0.09031,0.38382 0.09031,0.92569 v 3.13831 q 0,0.28222 0.07902,0.4064 0.09031,0.12418 0.270934,0.12418 0.124178,0 0.237067,-0.0565 0.112889,-0.0564 0.270934,-0.18062 l 0.124177,0.19191 q -0.237066,0.18062 -0.451556,0.3048 -0.214489,0.11289 -0.575733,0.11289 -0.327379,0 -0.541868,-0.11289 -0.214489,-0.11289 -0.327378,-0.32738 -0.1016,-0.22577 -0.1016,-0.56444 -0.3048,0.508 -0.733778,0.75636 -0.41769,0.24835 -0.948268,0.24835 z m 0.4064,-0.45155 q 0.372534,0 0.688623,-0.21449 0.327378,-0.21449 0.587023,-0.64347 v -2.21263 q -0.135467,0.19192 -0.395111,0.32738 -0.259645,0.12418 -0.564445,0.25965 -0.304801,0.12418 -0.587023,0.3048 -0.270934,0.16933 -0.451556,0.45155 -0.180623,0.28223 -0.180623,0.73378 0,0.45156 0.237067,0.72249 0.248356,0.27094 0.666045,0.27094 z"
         id="path331" />
    </g>
  </g>
</svg>
